<mxfile host="app.diagrams.net" agent="Mozilla/5.0 (Macintosh; Intel Mac OS X 10_15_7) AppleWebKit/537.36 (KHTML, like Gecko) Chrome/128.0.0.0 Safari/537.36" version="24.7.17">
  <diagram name="第 1 页" id="v13qHJoqfvRbCU6Fkaf9">
    <mxGraphModel dx="2261" dy="785" grid="1" gridSize="10" guides="1" tooltips="1" connect="1" arrows="1" fold="1" page="1" pageScale="1" pageWidth="827" pageHeight="1169" math="0" shadow="0">
      <root>
        <mxCell id="0" />
        <mxCell id="1" parent="0" />
        <mxCell id="w0srNRNJxV0aufEhzPkD-31" value="Dag" style="swimlane;fontStyle=2;align=center;verticalAlign=top;childLayout=stackLayout;horizontal=1;startSize=26;horizontalStack=0;resizeParent=1;resizeLast=0;collapsible=1;marginBottom=0;rounded=0;shadow=0;strokeWidth=1;fontSize=12;fillColor=#e1d5e7;strokeColor=#9673a6;" parent="1" vertex="1">
          <mxGeometry x="-290" y="585" width="190" height="216" as="geometry">
            <mxRectangle x="230" y="140" width="160" height="26" as="alternateBounds" />
          </mxGeometry>
        </mxCell>
        <mxCell id="w0srNRNJxV0aufEhzPkD-32" value="- name sting" style="text;align=left;verticalAlign=top;spacingLeft=4;spacingRight=4;overflow=hidden;rotatable=0;points=[[0,0.5],[1,0.5]];portConstraint=eastwest;fontSize=12;" parent="w0srNRNJxV0aufEhzPkD-31" vertex="1">
          <mxGeometry y="26" width="190" height="26" as="geometry" />
        </mxCell>
        <mxCell id="w0srNRNJxV0aufEhzPkD-33" value="- nodeMap map[string]*node" style="text;align=left;verticalAlign=top;spacingLeft=4;spacingRight=4;overflow=hidden;rotatable=0;points=[[0,0.5],[1,0.5]];portConstraint=eastwest;rounded=0;shadow=0;html=0;fillColor=#dae8fc;strokeColor=#6c8ebf;fontSize=12;" parent="w0srNRNJxV0aufEhzPkD-31" vertex="1">
          <mxGeometry y="52" width="190" height="26" as="geometry" />
        </mxCell>
        <mxCell id="w0srNRNJxV0aufEhzPkD-34" value="- factoryPool chan *Dag" style="text;align=left;verticalAlign=top;spacingLeft=4;spacingRight=4;overflow=hidden;rotatable=0;points=[[0,0.5],[1,0.5]];portConstraint=eastwest;rounded=0;shadow=0;html=0;fillColor=#f5f5f5;fontColor=#333333;strokeColor=#666666;fontSize=12;" parent="w0srNRNJxV0aufEhzPkD-31" vertex="1">
          <mxGeometry y="78" width="190" height="26" as="geometry" />
        </mxCell>
        <mxCell id="w0srNRNJxV0aufEhzPkD-35" value="" style="line;html=1;strokeWidth=1;align=left;verticalAlign=middle;spacingTop=-1;spacingLeft=3;spacingRight=3;rotatable=0;labelPosition=right;points=[];portConstraint=eastwest;fontSize=12;" parent="w0srNRNJxV0aufEhzPkD-31" vertex="1">
          <mxGeometry y="104" width="190" height="8" as="geometry" />
        </mxCell>
        <mxCell id="w0srNRNJxV0aufEhzPkD-36" value="+ AddNode(fn Task) error" style="text;align=left;verticalAlign=top;spacingLeft=4;spacingRight=4;overflow=hidden;rotatable=0;points=[[0,0.5],[1,0.5]];portConstraint=eastwest;fillColor=#d5e8d4;strokeColor=#82b366;fontSize=12;" parent="w0srNRNJxV0aufEhzPkD-31" vertex="1">
          <mxGeometry y="112" width="190" height="26" as="geometry" />
        </mxCell>
        <mxCell id="w0srNRNJxV0aufEhzPkD-37" value="- init(file string) (*Dag, error)" style="text;align=left;verticalAlign=top;spacingLeft=4;spacingRight=4;overflow=hidden;rotatable=0;points=[[0,0.5],[1,0.5]];portConstraint=eastwest;fontSize=12;" parent="w0srNRNJxV0aufEhzPkD-31" vertex="1">
          <mxGeometry y="138" width="190" height="26" as="geometry" />
        </mxCell>
        <mxCell id="w0srNRNJxV0aufEhzPkD-38" value="+ Copy(file string) *Dag" style="text;align=left;verticalAlign=top;spacingLeft=4;spacingRight=4;overflow=hidden;rotatable=0;points=[[0,0.5],[1,0.5]];portConstraint=eastwest;fontSize=12;" parent="w0srNRNJxV0aufEhzPkD-31" vertex="1">
          <mxGeometry y="164" width="190" height="26" as="geometry" />
        </mxCell>
        <mxCell id="w0srNRNJxV0aufEhzPkD-39" value="- autoGenerate()" style="text;align=left;verticalAlign=top;spacingLeft=4;spacingRight=4;overflow=hidden;rotatable=0;points=[[0,0.5],[1,0.5]];portConstraint=eastwest;fontSize=12;" parent="w0srNRNJxV0aufEhzPkD-31" vertex="1">
          <mxGeometry y="190" width="190" height="26" as="geometry" />
        </mxCell>
        <mxCell id="w0srNRNJxV0aufEhzPkD-43" value="&lt;interface&gt;&#xa;Task" style="swimlane;fontStyle=2;align=center;verticalAlign=top;childLayout=stackLayout;horizontal=1;startSize=40;horizontalStack=0;resizeParent=1;resizeLast=0;collapsible=1;marginBottom=0;rounded=0;shadow=0;strokeWidth=1;fillColor=#d5e8d4;strokeColor=#82b366;" parent="1" vertex="1">
          <mxGeometry x="520" y="614" width="270" height="158" as="geometry">
            <mxRectangle x="230" y="140" width="160" height="26" as="alternateBounds" />
          </mxGeometry>
        </mxCell>
        <mxCell id="w0srNRNJxV0aufEhzPkD-47" value="" style="line;html=1;strokeWidth=1;align=left;verticalAlign=middle;spacingTop=-1;spacingLeft=3;spacingRight=3;rotatable=0;labelPosition=right;points=[];portConstraint=eastwest;" parent="w0srNRNJxV0aufEhzPkD-43" vertex="1">
          <mxGeometry y="40" width="270" height="8" as="geometry" />
        </mxCell>
        <mxCell id="w0srNRNJxV0aufEhzPkD-48" value="+ NodeName() string" style="text;align=left;verticalAlign=top;spacingLeft=4;spacingRight=4;overflow=hidden;rotatable=0;points=[[0,0.5],[1,0.5]];portConstraint=eastwest;" parent="w0srNRNJxV0aufEhzPkD-43" vertex="1">
          <mxGeometry y="48" width="270" height="26" as="geometry" />
        </mxCell>
        <mxCell id="w0srNRNJxV0aufEhzPkD-49" value="+ Run(content.Context, dataset.DataSet) error" style="text;align=left;verticalAlign=top;spacingLeft=4;spacingRight=4;overflow=hidden;rotatable=0;points=[[0,0.5],[1,0.5]];portConstraint=eastwest;fillColor=#ffe6cc;strokeColor=#d79b00;" parent="w0srNRNJxV0aufEhzPkD-43" vertex="1">
          <mxGeometry y="74" width="270" height="26" as="geometry" />
        </mxCell>
        <mxCell id="w0srNRNJxV0aufEhzPkD-52" value="《interface》&#xa;DataSet" style="swimlane;fontStyle=2;align=center;verticalAlign=top;childLayout=stackLayout;horizontal=1;startSize=40;horizontalStack=0;resizeParent=1;resizeLast=0;collapsible=1;marginBottom=0;rounded=0;shadow=0;strokeWidth=1;fillColor=#ffe6cc;strokeColor=#d79b00;" parent="1" vertex="1">
          <mxGeometry x="1100" y="342" width="392" height="160" as="geometry">
            <mxRectangle x="190" y="630" width="160" height="26" as="alternateBounds" />
          </mxGeometry>
        </mxCell>
        <mxCell id="w0srNRNJxV0aufEhzPkD-53" value="+&lt;font style=&quot;font-size: 13px;&quot;&gt;&amp;nbsp;Set(key string, data interface{}) DataSet&lt;/font&gt;" style="text;html=1;align=left;verticalAlign=middle;whiteSpace=wrap;rounded=0;" parent="w0srNRNJxV0aufEhzPkD-52" vertex="1">
          <mxGeometry y="40" width="392" height="30" as="geometry" />
        </mxCell>
        <mxCell id="w0srNRNJxV0aufEhzPkD-54" value="&lt;div style=&quot;font-size: 13px; line-height: 20px; white-space: pre;&quot;&gt;&lt;span style=&quot;background-color: rgb(248, 249, 250);&quot;&gt;&lt;font face=&quot;Helvetica&quot;&gt;&lt;font style=&quot;font-size: 13px;&quot;&gt;+ &lt;/font&gt;&lt;span style=&quot;white-space: normal;&quot;&gt;Get&lt;/span&gt;&lt;span style=&quot;white-space: normal;&quot;&gt;(key &lt;/span&gt;&lt;span style=&quot;white-space: normal;&quot;&gt;string&lt;/span&gt;&lt;span style=&quot;white-space: normal;&quot;&gt;) (data &lt;/span&gt;&lt;span style=&quot;white-space: normal;&quot;&gt;interface&lt;/span&gt;&lt;span style=&quot;white-space: normal;&quot;&gt;{}&lt;/span&gt;&lt;span style=&quot;white-space: normal;&quot;&gt;, &lt;/span&gt;&lt;span style=&quot;white-space: normal;&quot;&gt;ok &lt;/span&gt;&lt;span style=&quot;white-space: normal;&quot;&gt;bool&lt;/span&gt;&lt;span style=&quot;white-space: normal;&quot;&gt;)&lt;/span&gt;&lt;/font&gt;&lt;/span&gt;&lt;/div&gt;" style="text;html=1;align=left;verticalAlign=middle;whiteSpace=wrap;rounded=0;" parent="w0srNRNJxV0aufEhzPkD-52" vertex="1">
          <mxGeometry y="70" width="392" height="30" as="geometry" />
        </mxCell>
        <mxCell id="w0srNRNJxV0aufEhzPkD-55" value="&lt;div style=&quot;background-color: rgb(248, 249, 250); font-size: 13px; line-height: 20px; white-space: pre;&quot;&gt;&lt;font face=&quot;Helvetica&quot;&gt;+ Str() string // 格式化输出&lt;/font&gt;&lt;/div&gt;" style="text;html=1;align=left;verticalAlign=middle;whiteSpace=wrap;rounded=0;" parent="w0srNRNJxV0aufEhzPkD-52" vertex="1">
          <mxGeometry y="100" width="392" height="30" as="geometry" />
        </mxCell>
        <mxCell id="w0srNRNJxV0aufEhzPkD-56" value="&lt;div style=&quot;font-size: 13px; line-height: 20px; white-space: pre;&quot;&gt;&lt;font style=&quot;font-size: 13px;&quot; face=&quot;Helvetica&quot;&gt;+ Reset()  // &lt;/font&gt;&lt;span style=&quot;white-space: normal;&quot;&gt;序列化&lt;/span&gt;&lt;span style=&quot;white-space: normal;&quot;&gt;dataset&lt;/span&gt;&lt;/div&gt;" style="text;html=1;align=left;verticalAlign=middle;whiteSpace=wrap;rounded=0;" parent="w0srNRNJxV0aufEhzPkD-52" vertex="1">
          <mxGeometry y="130" width="392" height="30" as="geometry" />
        </mxCell>
        <mxCell id="w0srNRNJxV0aufEhzPkD-57" value="" style="endArrow=block;endSize=10;endFill=0;shadow=0;strokeWidth=1;rounded=0;curved=0;edgeStyle=elbowEdgeStyle;elbow=vertical;dashed=1;dashPattern=8 8;entryX=0.5;entryY=1;entryDx=0;entryDy=0;exitX=0.5;exitY=0;exitDx=0;exitDy=0;" parent="1" source="w0srNRNJxV0aufEhzPkD-58" target="w0srNRNJxV0aufEhzPkD-56" edge="1">
          <mxGeometry width="160" relative="1" as="geometry">
            <mxPoint x="1296" y="601" as="sourcePoint" />
            <mxPoint x="1260" y="561" as="targetPoint" />
          </mxGeometry>
        </mxCell>
        <mxCell id="w0srNRNJxV0aufEhzPkD-58" value="dataSet" style="swimlane;fontStyle=0;align=center;verticalAlign=top;childLayout=stackLayout;horizontal=1;startSize=26;horizontalStack=0;resizeParent=1;resizeLast=0;collapsible=1;marginBottom=0;rounded=0;shadow=0;strokeWidth=1;" parent="1" vertex="1">
          <mxGeometry x="1100" y="581" width="390" height="220" as="geometry">
            <mxRectangle x="130" y="380" width="160" height="26" as="alternateBounds" />
          </mxGeometry>
        </mxCell>
        <mxCell id="w0srNRNJxV0aufEhzPkD-59" value="- mdLock sync.RWMutex // 读写锁" style="text;align=left;verticalAlign=top;spacingLeft=4;spacingRight=4;overflow=hidden;rotatable=0;points=[[0,0.5],[1,0.5]];portConstraint=eastwest;" parent="w0srNRNJxV0aufEhzPkD-58" vertex="1">
          <mxGeometry y="26" width="390" height="26" as="geometry" />
        </mxCell>
        <mxCell id="w0srNRNJxV0aufEhzPkD-60" value="- md     map[string]interface{} // 存储map" style="text;align=left;verticalAlign=top;spacingLeft=4;spacingRight=4;overflow=hidden;rotatable=0;points=[[0,0.5],[1,0.5]];portConstraint=eastwest;rounded=0;shadow=0;html=0;" parent="w0srNRNJxV0aufEhzPkD-58" vertex="1">
          <mxGeometry y="52" width="390" height="26" as="geometry" />
        </mxCell>
        <mxCell id="w0srNRNJxV0aufEhzPkD-61" value="" style="line;html=1;strokeWidth=1;align=left;verticalAlign=middle;spacingTop=-1;spacingLeft=3;spacingRight=3;rotatable=0;labelPosition=right;points=[];portConstraint=eastwest;" parent="w0srNRNJxV0aufEhzPkD-58" vertex="1">
          <mxGeometry y="78" width="390" height="8" as="geometry" />
        </mxCell>
        <mxCell id="w0srNRNJxV0aufEhzPkD-62" value="+&lt;font style=&quot;font-size: 13px;&quot;&gt;&amp;nbsp;Set(key string, data interface{}) DataSet&lt;/font&gt;" style="text;html=1;align=left;verticalAlign=middle;whiteSpace=wrap;rounded=0;" parent="w0srNRNJxV0aufEhzPkD-58" vertex="1">
          <mxGeometry y="86" width="390" height="30" as="geometry" />
        </mxCell>
        <mxCell id="w0srNRNJxV0aufEhzPkD-63" value="&lt;div style=&quot;font-size: 13px; line-height: 20px; white-space: pre;&quot;&gt;&lt;font style=&quot;font-size: 13px;&quot; face=&quot;Helvetica&quot;&gt;+ Reset()  // &lt;/font&gt;&lt;span style=&quot;white-space: normal;&quot;&gt;序列化&lt;/span&gt;&lt;span style=&quot;white-space: normal;&quot;&gt;dataset&lt;/span&gt;&lt;/div&gt;" style="text;html=1;align=left;verticalAlign=middle;whiteSpace=wrap;rounded=0;" parent="w0srNRNJxV0aufEhzPkD-58" vertex="1">
          <mxGeometry y="116" width="390" height="30" as="geometry" />
        </mxCell>
        <mxCell id="w0srNRNJxV0aufEhzPkD-64" value="&lt;div style=&quot;background-color: rgb(248, 249, 250); font-size: 13px; line-height: 20px; white-space: pre;&quot;&gt;&lt;font face=&quot;Helvetica&quot;&gt;+ Str() string // 格式化输出&lt;/font&gt;&lt;/div&gt;" style="text;html=1;align=left;verticalAlign=middle;whiteSpace=wrap;rounded=0;" parent="w0srNRNJxV0aufEhzPkD-58" vertex="1">
          <mxGeometry y="146" width="390" height="30" as="geometry" />
        </mxCell>
        <mxCell id="w0srNRNJxV0aufEhzPkD-65" value="&lt;div style=&quot;font-size: 13px; line-height: 20px; white-space: pre;&quot;&gt;&lt;span style=&quot;background-color: rgb(248, 249, 250);&quot;&gt;&lt;font face=&quot;Helvetica&quot;&gt;&lt;font style=&quot;font-size: 13px;&quot;&gt;+ &lt;/font&gt;&lt;span style=&quot;white-space: normal;&quot;&gt;Get&lt;/span&gt;&lt;span style=&quot;white-space: normal;&quot;&gt;(key &lt;/span&gt;&lt;span style=&quot;white-space: normal;&quot;&gt;string&lt;/span&gt;&lt;span style=&quot;white-space: normal;&quot;&gt;) (data &lt;/span&gt;&lt;span style=&quot;white-space: normal;&quot;&gt;interface&lt;/span&gt;&lt;span style=&quot;white-space: normal;&quot;&gt;{}&lt;/span&gt;&lt;span style=&quot;white-space: normal;&quot;&gt;, &lt;/span&gt;&lt;span style=&quot;white-space: normal;&quot;&gt;ok &lt;/span&gt;&lt;span style=&quot;white-space: normal;&quot;&gt;bool&lt;/span&gt;&lt;span style=&quot;white-space: normal;&quot;&gt;)&lt;/span&gt;&lt;/font&gt;&lt;/span&gt;&lt;/div&gt;" style="text;html=1;align=left;verticalAlign=middle;whiteSpace=wrap;rounded=0;" parent="w0srNRNJxV0aufEhzPkD-58" vertex="1">
          <mxGeometry y="176" width="390" height="30" as="geometry" />
        </mxCell>
        <mxCell id="w0srNRNJxV0aufEhzPkD-67" value="node" style="swimlane;fontStyle=2;align=center;verticalAlign=top;childLayout=stackLayout;horizontal=1;startSize=26;horizontalStack=0;resizeParent=1;resizeLast=0;collapsible=1;marginBottom=0;rounded=0;shadow=0;strokeWidth=1;fontSize=12;fillColor=#dae8fc;strokeColor=#6c8ebf;" parent="1" vertex="1">
          <mxGeometry x="100" y="317" width="190" height="268" as="geometry">
            <mxRectangle x="230" y="140" width="160" height="26" as="alternateBounds" />
          </mxGeometry>
        </mxCell>
        <mxCell id="w0srNRNJxV0aufEhzPkD-68" value="- name sting" style="text;align=left;verticalAlign=top;spacingLeft=4;spacingRight=4;overflow=hidden;rotatable=0;points=[[0,0.5],[1,0.5]];portConstraint=eastwest;fontSize=12;" parent="w0srNRNJxV0aufEhzPkD-67" vertex="1">
          <mxGeometry y="26" width="190" height="26" as="geometry" />
        </mxCell>
        <mxCell id="w0srNRNJxV0aufEhzPkD-69" value="- inEdge []string // 入边" style="text;align=left;verticalAlign=top;spacingLeft=4;spacingRight=4;overflow=hidden;rotatable=0;points=[[0,0.5],[1,0.5]];portConstraint=eastwest;rounded=0;shadow=0;html=0;fontSize=12;" parent="w0srNRNJxV0aufEhzPkD-67" vertex="1">
          <mxGeometry y="52" width="190" height="26" as="geometry" />
        </mxCell>
        <mxCell id="w0srNRNJxV0aufEhzPkD-70" value="- outEdge []string // 出边" style="text;align=left;verticalAlign=top;spacingLeft=4;spacingRight=4;overflow=hidden;rotatable=0;points=[[0,0.5],[1,0.5]];portConstraint=eastwest;rounded=0;shadow=0;html=0;fontSize=12;" parent="w0srNRNJxV0aufEhzPkD-67" vertex="1">
          <mxGeometry y="78" width="190" height="26" as="geometry" />
        </mxCell>
        <mxCell id="w0srNRNJxV0aufEhzPkD-76" value="- fn Task // 节点执行函数" style="text;align=left;verticalAlign=top;spacingLeft=4;spacingRight=4;overflow=hidden;rotatable=0;points=[[0,0.5],[1,0.5]];portConstraint=eastwest;rounded=0;shadow=0;html=0;fontSize=12;fillColor=#d5e8d4;strokeColor=#82b366;" parent="w0srNRNJxV0aufEhzPkD-67" vertex="1">
          <mxGeometry y="104" width="190" height="26" as="geometry" />
        </mxCell>
        <mxCell id="w0srNRNJxV0aufEhzPkD-77" value="- inCount // 依赖数" style="text;align=left;verticalAlign=top;spacingLeft=4;spacingRight=4;overflow=hidden;rotatable=0;points=[[0,0.5],[1,0.5]];portConstraint=eastwest;rounded=0;shadow=0;html=0;fontSize=12;" parent="w0srNRNJxV0aufEhzPkD-67" vertex="1">
          <mxGeometry y="130" width="190" height="26" as="geometry" />
        </mxCell>
        <mxCell id="w0srNRNJxV0aufEhzPkD-78" value="- mu sync.Mutex" style="text;align=left;verticalAlign=top;spacingLeft=4;spacingRight=4;overflow=hidden;rotatable=0;points=[[0,0.5],[1,0.5]];portConstraint=eastwest;rounded=0;shadow=0;html=0;fontSize=12;" parent="w0srNRNJxV0aufEhzPkD-67" vertex="1">
          <mxGeometry y="156" width="190" height="26" as="geometry" />
        </mxCell>
        <mxCell id="w0srNRNJxV0aufEhzPkD-79" value="- done bool" style="text;align=left;verticalAlign=top;spacingLeft=4;spacingRight=4;overflow=hidden;rotatable=0;points=[[0,0.5],[1,0.5]];portConstraint=eastwest;rounded=0;shadow=0;html=0;fontSize=12;" parent="w0srNRNJxV0aufEhzPkD-67" vertex="1">
          <mxGeometry y="182" width="190" height="26" as="geometry" />
        </mxCell>
        <mxCell id="w0srNRNJxV0aufEhzPkD-80" value="- cost time.Duration" style="text;align=left;verticalAlign=top;spacingLeft=4;spacingRight=4;overflow=hidden;rotatable=0;points=[[0,0.5],[1,0.5]];portConstraint=eastwest;rounded=0;shadow=0;html=0;fontSize=12;" parent="w0srNRNJxV0aufEhzPkD-67" vertex="1">
          <mxGeometry y="208" width="190" height="26" as="geometry" />
        </mxCell>
        <mxCell id="w0srNRNJxV0aufEhzPkD-81" value="- err error" style="text;align=left;verticalAlign=top;spacingLeft=4;spacingRight=4;overflow=hidden;rotatable=0;points=[[0,0.5],[1,0.5]];portConstraint=eastwest;rounded=0;shadow=0;html=0;fontSize=12;" parent="w0srNRNJxV0aufEhzPkD-67" vertex="1">
          <mxGeometry y="234" width="190" height="26" as="geometry" />
        </mxCell>
        <mxCell id="w0srNRNJxV0aufEhzPkD-71" value="" style="line;html=1;strokeWidth=1;align=left;verticalAlign=middle;spacingTop=-1;spacingLeft=3;spacingRight=3;rotatable=0;labelPosition=right;points=[];portConstraint=eastwest;fontSize=12;" parent="w0srNRNJxV0aufEhzPkD-67" vertex="1">
          <mxGeometry y="260" width="190" height="8" as="geometry" />
        </mxCell>
        <mxCell id="w0srNRNJxV0aufEhzPkD-82" value="" style="endArrow=diamondThin;endFill=0;endSize=24;html=1;rounded=0;entryX=1;entryY=0.5;entryDx=0;entryDy=0;" parent="1" source="w0srNRNJxV0aufEhzPkD-52" target="w0srNRNJxV0aufEhzPkD-49" edge="1">
          <mxGeometry width="160" relative="1" as="geometry">
            <mxPoint x="1098" y="689" as="sourcePoint" />
            <mxPoint x="790" y="697" as="targetPoint" />
          </mxGeometry>
        </mxCell>
        <mxCell id="w0srNRNJxV0aufEhzPkD-83" value="&lt;font style=&quot;font-size: 15px;&quot;&gt;1:1&lt;/font&gt;" style="edgeLabel;html=1;align=center;verticalAlign=middle;resizable=0;points=[];" parent="w0srNRNJxV0aufEhzPkD-82" vertex="1" connectable="0">
          <mxGeometry x="0.1223" y="-2" relative="1" as="geometry">
            <mxPoint x="1" as="offset" />
          </mxGeometry>
        </mxCell>
        <mxCell id="w0srNRNJxV0aufEhzPkD-84" value="" style="endArrow=diamondThin;endFill=0;endSize=24;html=1;rounded=0;entryX=1;entryY=0.5;entryDx=0;entryDy=0;" parent="1" source="w0srNRNJxV0aufEhzPkD-67" target="w0srNRNJxV0aufEhzPkD-33" edge="1">
          <mxGeometry width="160" relative="1" as="geometry">
            <mxPoint x="588" y="920" as="sourcePoint" />
            <mxPoint x="270" y="933" as="targetPoint" />
          </mxGeometry>
        </mxCell>
        <mxCell id="w0srNRNJxV0aufEhzPkD-85" value="&lt;font style=&quot;font-size: 15px;&quot;&gt;1:n&lt;/font&gt;" style="edgeLabel;html=1;align=center;verticalAlign=middle;resizable=0;points=[];" parent="w0srNRNJxV0aufEhzPkD-84" vertex="1" connectable="0">
          <mxGeometry x="0.1223" y="-2" relative="1" as="geometry">
            <mxPoint x="1" as="offset" />
          </mxGeometry>
        </mxCell>
        <mxCell id="w0srNRNJxV0aufEhzPkD-86" value="" style="endArrow=diamondThin;endFill=0;endSize=24;html=1;rounded=0;entryX=1;entryY=0.5;entryDx=0;entryDy=0;" parent="1" source="w0srNRNJxV0aufEhzPkD-43" target="w0srNRNJxV0aufEhzPkD-76" edge="1">
          <mxGeometry width="160" relative="1" as="geometry">
            <mxPoint x="1100" y="708" as="sourcePoint" />
            <mxPoint x="782" y="721" as="targetPoint" />
          </mxGeometry>
        </mxCell>
        <mxCell id="w0srNRNJxV0aufEhzPkD-87" value="&lt;font style=&quot;font-size: 15px;&quot;&gt;1:1&lt;/font&gt;" style="edgeLabel;html=1;align=center;verticalAlign=middle;resizable=0;points=[];" parent="w0srNRNJxV0aufEhzPkD-86" vertex="1" connectable="0">
          <mxGeometry x="0.1223" y="-2" relative="1" as="geometry">
            <mxPoint x="1" as="offset" />
          </mxGeometry>
        </mxCell>
        <mxCell id="w0srNRNJxV0aufEhzPkD-88" value="" style="endArrow=block;endSize=10;endFill=0;shadow=0;strokeWidth=1;rounded=0;curved=0;edgeStyle=elbowEdgeStyle;elbow=vertical;dashed=1;dashPattern=8 8;exitX=0.5;exitY=0;exitDx=0;exitDy=0;" parent="1" source="w0srNRNJxV0aufEhzPkD-89" target="w0srNRNJxV0aufEhzPkD-43" edge="1">
          <mxGeometry width="160" relative="1" as="geometry">
            <mxPoint x="676" y="909" as="sourcePoint" />
            <mxPoint x="676" y="810" as="targetPoint" />
          </mxGeometry>
        </mxCell>
        <mxCell id="w0srNRNJxV0aufEhzPkD-89" value="CommentCount" style="swimlane;fontStyle=0;align=center;verticalAlign=top;childLayout=stackLayout;horizontal=1;startSize=26;horizontalStack=0;resizeParent=1;resizeLast=0;collapsible=1;marginBottom=0;rounded=0;shadow=0;strokeWidth=1;" parent="1" vertex="1">
          <mxGeometry x="90" y="880" width="270" height="220" as="geometry">
            <mxRectangle x="130" y="380" width="160" height="26" as="alternateBounds" />
          </mxGeometry>
        </mxCell>
        <mxCell id="w0srNRNJxV0aufEhzPkD-91" value="- *base" style="text;align=left;verticalAlign=top;spacingLeft=4;spacingRight=4;overflow=hidden;rotatable=0;points=[[0,0.5],[1,0.5]];portConstraint=eastwest;rounded=0;shadow=0;html=0;fillColor=#f8cecc;strokeColor=#b85450;" parent="w0srNRNJxV0aufEhzPkD-89" vertex="1">
          <mxGeometry y="26" width="270" height="26" as="geometry" />
        </mxCell>
        <mxCell id="w0srNRNJxV0aufEhzPkD-92" value="" style="line;html=1;strokeWidth=1;align=left;verticalAlign=middle;spacingTop=-1;spacingLeft=3;spacingRight=3;rotatable=0;labelPosition=right;points=[];portConstraint=eastwest;" parent="w0srNRNJxV0aufEhzPkD-89" vertex="1">
          <mxGeometry y="52" width="270" height="8" as="geometry" />
        </mxCell>
        <mxCell id="w0srNRNJxV0aufEhzPkD-102" value="+ Run(content.Context, dataset.DataSet) error" style="text;align=left;verticalAlign=top;spacingLeft=4;spacingRight=4;overflow=hidden;rotatable=0;points=[[0,0.5],[1,0.5]];portConstraint=eastwest;fillColor=#ffe6cc;strokeColor=#d79b00;" parent="w0srNRNJxV0aufEhzPkD-89" vertex="1">
          <mxGeometry y="60" width="270" height="26" as="geometry" />
        </mxCell>
        <mxCell id="w0srNRNJxV0aufEhzPkD-97" value="base" style="swimlane;fontStyle=2;align=center;verticalAlign=top;childLayout=stackLayout;horizontal=1;startSize=26;horizontalStack=0;resizeParent=1;resizeLast=0;collapsible=1;marginBottom=0;rounded=0;shadow=0;strokeWidth=1;fillColor=#f8cecc;strokeColor=#b85450;" parent="1" vertex="1">
          <mxGeometry x="240" y="614" width="242" height="158" as="geometry">
            <mxRectangle x="230" y="140" width="160" height="26" as="alternateBounds" />
          </mxGeometry>
        </mxCell>
        <mxCell id="w0srNRNJxV0aufEhzPkD-98" value="" style="line;html=1;strokeWidth=1;align=left;verticalAlign=middle;spacingTop=-1;spacingLeft=3;spacingRight=3;rotatable=0;labelPosition=right;points=[];portConstraint=eastwest;" parent="w0srNRNJxV0aufEhzPkD-97" vertex="1">
          <mxGeometry y="26" width="242" height="8" as="geometry" />
        </mxCell>
        <mxCell id="w0srNRNJxV0aufEhzPkD-99" value="+ NodeName() string" style="text;align=left;verticalAlign=top;spacingLeft=4;spacingRight=4;overflow=hidden;rotatable=0;points=[[0,0.5],[1,0.5]];portConstraint=eastwest;" parent="w0srNRNJxV0aufEhzPkD-97" vertex="1">
          <mxGeometry y="34" width="242" height="26" as="geometry" />
        </mxCell>
        <mxCell id="w0srNRNJxV0aufEhzPkD-103" value="CountTotal" style="swimlane;fontStyle=0;align=center;verticalAlign=top;childLayout=stackLayout;horizontal=1;startSize=26;horizontalStack=0;resizeParent=1;resizeLast=0;collapsible=1;marginBottom=0;rounded=0;shadow=0;strokeWidth=1;" parent="1" vertex="1">
          <mxGeometry x="370" y="880" width="270" height="220" as="geometry">
            <mxRectangle x="130" y="380" width="160" height="26" as="alternateBounds" />
          </mxGeometry>
        </mxCell>
        <mxCell id="w0srNRNJxV0aufEhzPkD-104" value="- *base" style="text;align=left;verticalAlign=top;spacingLeft=4;spacingRight=4;overflow=hidden;rotatable=0;points=[[0,0.5],[1,0.5]];portConstraint=eastwest;rounded=0;shadow=0;html=0;fillColor=#f8cecc;strokeColor=#b85450;" parent="w0srNRNJxV0aufEhzPkD-103" vertex="1">
          <mxGeometry y="26" width="270" height="26" as="geometry" />
        </mxCell>
        <mxCell id="w0srNRNJxV0aufEhzPkD-105" value="" style="line;html=1;strokeWidth=1;align=left;verticalAlign=middle;spacingTop=-1;spacingLeft=3;spacingRight=3;rotatable=0;labelPosition=right;points=[];portConstraint=eastwest;" parent="w0srNRNJxV0aufEhzPkD-103" vertex="1">
          <mxGeometry y="52" width="270" height="8" as="geometry" />
        </mxCell>
        <mxCell id="w0srNRNJxV0aufEhzPkD-106" value="+ Run(content.Context, dataset.DataSet) error" style="text;align=left;verticalAlign=top;spacingLeft=4;spacingRight=4;overflow=hidden;rotatable=0;points=[[0,0.5],[1,0.5]];portConstraint=eastwest;fillColor=#ffe6cc;strokeColor=#d79b00;" parent="w0srNRNJxV0aufEhzPkD-103" vertex="1">
          <mxGeometry y="60" width="270" height="26" as="geometry" />
        </mxCell>
        <mxCell id="w0srNRNJxV0aufEhzPkD-107" value="List" style="swimlane;fontStyle=0;align=center;verticalAlign=top;childLayout=stackLayout;horizontal=1;startSize=26;horizontalStack=0;resizeParent=1;resizeLast=0;collapsible=1;marginBottom=0;rounded=0;shadow=0;strokeWidth=1;" parent="1" vertex="1">
          <mxGeometry x="650" y="880" width="270" height="220" as="geometry">
            <mxRectangle x="130" y="380" width="160" height="26" as="alternateBounds" />
          </mxGeometry>
        </mxCell>
        <mxCell id="w0srNRNJxV0aufEhzPkD-108" value="- *base" style="text;align=left;verticalAlign=top;spacingLeft=4;spacingRight=4;overflow=hidden;rotatable=0;points=[[0,0.5],[1,0.5]];portConstraint=eastwest;rounded=0;shadow=0;html=0;fillColor=#f8cecc;strokeColor=#b85450;" parent="w0srNRNJxV0aufEhzPkD-107" vertex="1">
          <mxGeometry y="26" width="270" height="26" as="geometry" />
        </mxCell>
        <mxCell id="w0srNRNJxV0aufEhzPkD-109" value="" style="line;html=1;strokeWidth=1;align=left;verticalAlign=middle;spacingTop=-1;spacingLeft=3;spacingRight=3;rotatable=0;labelPosition=right;points=[];portConstraint=eastwest;" parent="w0srNRNJxV0aufEhzPkD-107" vertex="1">
          <mxGeometry y="52" width="270" height="8" as="geometry" />
        </mxCell>
        <mxCell id="w0srNRNJxV0aufEhzPkD-110" value="+ Run(content.Context, dataset.DataSet) error" style="text;align=left;verticalAlign=top;spacingLeft=4;spacingRight=4;overflow=hidden;rotatable=0;points=[[0,0.5],[1,0.5]];portConstraint=eastwest;fillColor=#ffe6cc;strokeColor=#d79b00;" parent="w0srNRNJxV0aufEhzPkD-107" vertex="1">
          <mxGeometry y="60" width="270" height="26" as="geometry" />
        </mxCell>
        <mxCell id="w0srNRNJxV0aufEhzPkD-111" value="UserAttribute" style="swimlane;fontStyle=0;align=center;verticalAlign=top;childLayout=stackLayout;horizontal=1;startSize=26;horizontalStack=0;resizeParent=1;resizeLast=0;collapsible=1;marginBottom=0;rounded=0;shadow=0;strokeWidth=1;" parent="1" vertex="1">
          <mxGeometry x="930" y="880" width="270" height="220" as="geometry">
            <mxRectangle x="130" y="380" width="160" height="26" as="alternateBounds" />
          </mxGeometry>
        </mxCell>
        <mxCell id="w0srNRNJxV0aufEhzPkD-112" value="- *base" style="text;align=left;verticalAlign=top;spacingLeft=4;spacingRight=4;overflow=hidden;rotatable=0;points=[[0,0.5],[1,0.5]];portConstraint=eastwest;rounded=0;shadow=0;html=0;fillColor=#f8cecc;strokeColor=#b85450;" parent="w0srNRNJxV0aufEhzPkD-111" vertex="1">
          <mxGeometry y="26" width="270" height="26" as="geometry" />
        </mxCell>
        <mxCell id="w0srNRNJxV0aufEhzPkD-113" value="" style="line;html=1;strokeWidth=1;align=left;verticalAlign=middle;spacingTop=-1;spacingLeft=3;spacingRight=3;rotatable=0;labelPosition=right;points=[];portConstraint=eastwest;" parent="w0srNRNJxV0aufEhzPkD-111" vertex="1">
          <mxGeometry y="52" width="270" height="8" as="geometry" />
        </mxCell>
        <mxCell id="w0srNRNJxV0aufEhzPkD-114" value="+ Run(content.Context, dataset.DataSet) error" style="text;align=left;verticalAlign=top;spacingLeft=4;spacingRight=4;overflow=hidden;rotatable=0;points=[[0,0.5],[1,0.5]];portConstraint=eastwest;fillColor=#ffe6cc;strokeColor=#d79b00;" parent="w0srNRNJxV0aufEhzPkD-111" vertex="1">
          <mxGeometry y="60" width="270" height="26" as="geometry" />
        </mxCell>
        <mxCell id="w0srNRNJxV0aufEhzPkD-115" value="" style="endArrow=block;endSize=10;endFill=0;shadow=0;strokeWidth=1;rounded=0;curved=0;edgeStyle=elbowEdgeStyle;elbow=vertical;dashed=1;dashPattern=8 8;exitX=0.5;exitY=0;exitDx=0;exitDy=0;" parent="1" source="w0srNRNJxV0aufEhzPkD-103" target="w0srNRNJxV0aufEhzPkD-43" edge="1">
          <mxGeometry width="160" relative="1" as="geometry">
            <mxPoint x="235" y="890" as="sourcePoint" />
            <mxPoint x="665" y="782" as="targetPoint" />
          </mxGeometry>
        </mxCell>
        <mxCell id="w0srNRNJxV0aufEhzPkD-116" value="" style="endArrow=block;endSize=10;endFill=0;shadow=0;strokeWidth=1;rounded=0;curved=0;edgeStyle=elbowEdgeStyle;elbow=vertical;dashed=1;dashPattern=8 8;" parent="1" source="w0srNRNJxV0aufEhzPkD-107" target="w0srNRNJxV0aufEhzPkD-43" edge="1">
          <mxGeometry width="160" relative="1" as="geometry">
            <mxPoint x="245" y="900" as="sourcePoint" />
            <mxPoint x="675" y="792" as="targetPoint" />
          </mxGeometry>
        </mxCell>
        <mxCell id="w0srNRNJxV0aufEhzPkD-117" value="" style="endArrow=block;endSize=10;endFill=0;shadow=0;strokeWidth=1;rounded=0;curved=0;edgeStyle=elbowEdgeStyle;elbow=vertical;dashed=1;dashPattern=8 8;" parent="1" source="w0srNRNJxV0aufEhzPkD-111" target="w0srNRNJxV0aufEhzPkD-43" edge="1">
          <mxGeometry width="160" relative="1" as="geometry">
            <mxPoint x="255" y="910" as="sourcePoint" />
            <mxPoint x="685" y="802" as="targetPoint" />
          </mxGeometry>
        </mxCell>
        <mxCell id="w0srNRNJxV0aufEhzPkD-118" value="Etc..." style="swimlane;fontStyle=0;align=center;verticalAlign=top;childLayout=stackLayout;horizontal=1;startSize=26;horizontalStack=0;resizeParent=1;resizeLast=0;collapsible=1;marginBottom=0;rounded=0;shadow=0;strokeWidth=1;" parent="1" vertex="1">
          <mxGeometry x="1210" y="880" width="270" height="220" as="geometry">
            <mxRectangle x="130" y="380" width="160" height="26" as="alternateBounds" />
          </mxGeometry>
        </mxCell>
        <mxCell id="w0srNRNJxV0aufEhzPkD-119" value="- *base" style="text;align=left;verticalAlign=top;spacingLeft=4;spacingRight=4;overflow=hidden;rotatable=0;points=[[0,0.5],[1,0.5]];portConstraint=eastwest;rounded=0;shadow=0;html=0;fillColor=#f8cecc;strokeColor=#b85450;" parent="w0srNRNJxV0aufEhzPkD-118" vertex="1">
          <mxGeometry y="26" width="270" height="26" as="geometry" />
        </mxCell>
        <mxCell id="w0srNRNJxV0aufEhzPkD-120" value="" style="line;html=1;strokeWidth=1;align=left;verticalAlign=middle;spacingTop=-1;spacingLeft=3;spacingRight=3;rotatable=0;labelPosition=right;points=[];portConstraint=eastwest;" parent="w0srNRNJxV0aufEhzPkD-118" vertex="1">
          <mxGeometry y="52" width="270" height="8" as="geometry" />
        </mxCell>
        <mxCell id="w0srNRNJxV0aufEhzPkD-121" value="+ Run(content.Context, dataset.DataSet) error" style="text;align=left;verticalAlign=top;spacingLeft=4;spacingRight=4;overflow=hidden;rotatable=0;points=[[0,0.5],[1,0.5]];portConstraint=eastwest;fillColor=#ffe6cc;strokeColor=#d79b00;" parent="w0srNRNJxV0aufEhzPkD-118" vertex="1">
          <mxGeometry y="60" width="270" height="26" as="geometry" />
        </mxCell>
        <mxCell id="w0srNRNJxV0aufEhzPkD-122" value="" style="endArrow=block;endSize=10;endFill=0;shadow=0;strokeWidth=1;rounded=0;curved=0;edgeStyle=elbowEdgeStyle;elbow=vertical;dashed=1;dashPattern=8 8;" parent="1" source="w0srNRNJxV0aufEhzPkD-118" target="w0srNRNJxV0aufEhzPkD-43" edge="1">
          <mxGeometry width="160" relative="1" as="geometry">
            <mxPoint x="1075" y="890" as="sourcePoint" />
            <mxPoint x="665" y="782" as="targetPoint" />
          </mxGeometry>
        </mxCell>
        <mxCell id="w0srNRNJxV0aufEhzPkD-123" value="" style="endArrow=diamondThin;endFill=0;endSize=24;html=1;rounded=0;" parent="1" source="w0srNRNJxV0aufEhzPkD-91" target="w0srNRNJxV0aufEhzPkD-97" edge="1">
          <mxGeometry width="160" relative="1" as="geometry">
            <mxPoint x="554" y="624" as="sourcePoint" />
            <mxPoint x="300" y="444" as="targetPoint" />
          </mxGeometry>
        </mxCell>
        <mxCell id="w0srNRNJxV0aufEhzPkD-124" value="&lt;font style=&quot;font-size: 15px;&quot;&gt;1:1&lt;/font&gt;" style="edgeLabel;html=1;align=center;verticalAlign=middle;resizable=0;points=[];" parent="w0srNRNJxV0aufEhzPkD-123" vertex="1" connectable="0">
          <mxGeometry x="0.1223" y="-2" relative="1" as="geometry">
            <mxPoint x="1" as="offset" />
          </mxGeometry>
        </mxCell>
        <mxCell id="w0srNRNJxV0aufEhzPkD-125" value="" style="endArrow=diamondThin;endFill=0;endSize=24;html=1;rounded=0;" parent="1" source="w0srNRNJxV0aufEhzPkD-104" target="w0srNRNJxV0aufEhzPkD-97" edge="1">
          <mxGeometry width="160" relative="1" as="geometry">
            <mxPoint x="243" y="916" as="sourcePoint" />
            <mxPoint x="330" y="770" as="targetPoint" />
          </mxGeometry>
        </mxCell>
        <mxCell id="w0srNRNJxV0aufEhzPkD-126" value="&lt;font style=&quot;font-size: 15px;&quot;&gt;1:1&lt;/font&gt;" style="edgeLabel;html=1;align=center;verticalAlign=middle;resizable=0;points=[];" parent="w0srNRNJxV0aufEhzPkD-125" vertex="1" connectable="0">
          <mxGeometry x="0.1223" y="-2" relative="1" as="geometry">
            <mxPoint x="1" as="offset" />
          </mxGeometry>
        </mxCell>
        <mxCell id="L9stu6sJN5bzomWlHwRL-1" value="Dispatcher" style="swimlane;fontStyle=2;align=center;verticalAlign=top;childLayout=stackLayout;horizontal=1;startSize=26;horizontalStack=0;resizeParent=1;resizeLast=0;collapsible=1;marginBottom=0;rounded=0;shadow=0;strokeWidth=1;fontSize=12;" vertex="1" parent="1">
          <mxGeometry x="-650" y="420" width="190" height="216" as="geometry">
            <mxRectangle x="230" y="140" width="160" height="26" as="alternateBounds" />
          </mxGeometry>
        </mxCell>
        <mxCell id="L9stu6sJN5bzomWlHwRL-3" value="- readyChan chan *node" style="text;align=left;verticalAlign=top;spacingLeft=4;spacingRight=4;overflow=hidden;rotatable=0;points=[[0,0.5],[1,0.5]];portConstraint=eastwest;rounded=0;shadow=0;html=0;fontSize=12;fillColor=#dae8fc;strokeColor=#6c8ebf;" vertex="1" parent="L9stu6sJN5bzomWlHwRL-1">
          <mxGeometry y="26" width="190" height="26" as="geometry" />
        </mxCell>
        <mxCell id="L9stu6sJN5bzomWlHwRL-2" value="- dag *Dag" style="text;align=left;verticalAlign=top;spacingLeft=4;spacingRight=4;overflow=hidden;rotatable=0;points=[[0,0.5],[1,0.5]];portConstraint=eastwest;fontSize=12;fillColor=#e1d5e7;strokeColor=#9673a6;" vertex="1" parent="L9stu6sJN5bzomWlHwRL-1">
          <mxGeometry y="52" width="190" height="26" as="geometry" />
        </mxCell>
        <mxCell id="L9stu6sJN5bzomWlHwRL-4" value="- dataSet dataset.DataSet" style="text;align=left;verticalAlign=top;spacingLeft=4;spacingRight=4;overflow=hidden;rotatable=0;points=[[0,0.5],[1,0.5]];portConstraint=eastwest;rounded=0;shadow=0;html=0;fillColor=#ffe6cc;strokeColor=#d79b00;fontSize=12;" vertex="1" parent="L9stu6sJN5bzomWlHwRL-1">
          <mxGeometry y="78" width="190" height="26" as="geometry" />
        </mxCell>
        <mxCell id="L9stu6sJN5bzomWlHwRL-5" value="" style="line;html=1;strokeWidth=1;align=left;verticalAlign=middle;spacingTop=-1;spacingLeft=3;spacingRight=3;rotatable=0;labelPosition=right;points=[];portConstraint=eastwest;fontSize=12;" vertex="1" parent="L9stu6sJN5bzomWlHwRL-1">
          <mxGeometry y="104" width="190" height="8" as="geometry" />
        </mxCell>
        <mxCell id="L9stu6sJN5bzomWlHwRL-10" value="" style="endArrow=diamondThin;endFill=0;endSize=24;html=1;rounded=0;" edge="1" parent="1" source="w0srNRNJxV0aufEhzPkD-67" target="L9stu6sJN5bzomWlHwRL-3">
          <mxGeometry width="160" relative="1" as="geometry">
            <mxPoint x="110" y="525" as="sourcePoint" />
            <mxPoint x="-90" y="660" as="targetPoint" />
          </mxGeometry>
        </mxCell>
        <mxCell id="L9stu6sJN5bzomWlHwRL-11" value="&lt;font style=&quot;font-size: 15px;&quot;&gt;1:n&lt;/font&gt;" style="edgeLabel;html=1;align=center;verticalAlign=middle;resizable=0;points=[];" vertex="1" connectable="0" parent="L9stu6sJN5bzomWlHwRL-10">
          <mxGeometry x="0.1223" y="-2" relative="1" as="geometry">
            <mxPoint x="1" as="offset" />
          </mxGeometry>
        </mxCell>
        <mxCell id="L9stu6sJN5bzomWlHwRL-12" value="" style="endArrow=diamondThin;endFill=0;endSize=24;html=1;rounded=0;entryX=1;entryY=0.5;entryDx=0;entryDy=0;" edge="1" parent="1" source="w0srNRNJxV0aufEhzPkD-31" target="L9stu6sJN5bzomWlHwRL-2">
          <mxGeometry width="160" relative="1" as="geometry">
            <mxPoint x="120" y="535" as="sourcePoint" />
            <mxPoint x="-80" y="670" as="targetPoint" />
          </mxGeometry>
        </mxCell>
        <mxCell id="L9stu6sJN5bzomWlHwRL-13" value="&lt;font style=&quot;font-size: 15px;&quot;&gt;1:1&lt;/font&gt;" style="edgeLabel;html=1;align=center;verticalAlign=middle;resizable=0;points=[];" vertex="1" connectable="0" parent="L9stu6sJN5bzomWlHwRL-12">
          <mxGeometry x="0.1223" y="-2" relative="1" as="geometry">
            <mxPoint x="1" as="offset" />
          </mxGeometry>
        </mxCell>
      </root>
    </mxGraphModel>
  </diagram>
</mxfile>
